<?xml version="1.0" standalone="no"?><svg xmlns="http://www.w3.org/2000/svg" viewBox="0 0 1440 320"><path fill="#74ccf4" fill-opacity="0.75" d="M0,160L34.3,165.3C68.6,171,137,181,206,165.3C274.3,149,343,107,411,90.7C480,75,549,85,617,96C685.7,107,754,117,823,106.7C891.4,96,960,64,1029,80C1097.1,96,1166,160,1234,192C1302.9,224,1371,224,1406,224L1440,224L1440,320L1405.7,320C1371.4,320,1303,320,1234,320C1165.7,320,1097,320,1029,320C960,320,891,320,823,320C754.3,320,686,320,617,320C548.6,320,480,320,411,320C342.9,320,274,320,206,320C137.1,320,69,320,34,320L0,320Z"></path></svg>